<svg xmlns="http://www.w3.org/2000/svg" width="60" height="32" fill="none"><rect width="60" height="32" fill="#fff" rx="16"/><circle cx="44" cy="16" r="14" fill="#8B8B8B"/><g fill="#8B8B8B" clip-path="url(#a)"><path d="M15.999 22.764a.645.645 0 0 0-.645.645v1.948a.645.645 0 1 0 1.29 0V23.41a.645.645 0 0 0-.645-.645ZM15.999 9.24a.645.645 0 0 0 .645-.645V6.647a.645.645 0 1 0-1.29 0v1.948c0 .357.289.646.645.646ZM10.307 20.783 8.929 22.16a.645.645 0 1 0 .912.913l1.378-1.378a.645.645 0 1 0-.912-.912ZM21.236 11.41c.165 0 .33-.063.456-.189l1.378-1.377a.645.645 0 1 0-.912-.913L20.78 10.31a.645.645 0 0 0 .456 1.101ZM9.239 16a.645.645 0 0 0-.645-.645H6.645a.645.645 0 1 0 0 1.291h1.949a.645.645 0 0 0 .645-.645ZM25.355 15.355h-1.95a.645.645 0 1 0 0 1.291h1.95a.645.645 0 1 0 0-1.29ZM10.306 11.221a.643.643 0 0 0 .913 0 .645.645 0 0 0 0-.912L9.842 8.93a.645.645 0 1 0-.913.913l1.377 1.377ZM21.694 20.783a.645.645 0 1 0-.913.912l1.377 1.378a.643.643 0 0 0 .913 0 .645.645 0 0 0 0-.913l-1.377-1.377ZM16 10.191a5.816 5.816 0 0 0-5.81 5.81 5.816 5.816 0 0 0 5.81 5.81A5.816 5.816 0 0 0 21.81 16a5.816 5.816 0 0 0-5.81-5.81Zm0 10.33A4.524 4.524 0 0 1 11.48 16 4.524 4.524 0 0 1 16 11.482a4.524 4.524 0 0 1 4.519 4.52 4.524 4.524 0 0 1-4.52 4.518Z"/></g><defs><clipPath id="a"><path fill="#fff" d="M6 6h20v20H6z"/></clipPath></defs></svg>