<svg xmlns="http://www.w3.org/2000/svg" width="60" height="32" fill="none"><rect width="60" height="32" fill="#8B8B8B" rx="16"/><circle cx="16" cy="16" r="14" fill="#fff"/><path fill="#fff" d="M52.76 17.551a.629.629 0 0 0-.702-.05c-1.054.606-2.168.913-3.311.913a6.669 6.669 0 0 1-6.661-6.661c0-1.148.307-2.26.914-3.307a.629.629 0 0 0-.718-.92 8.795 8.795 0 0 0-4.497 3.056A8.513 8.513 0 0 0 36 15.827c0 4.782 3.89 8.673 8.673 8.673a8.52 8.52 0 0 0 5.245-1.785 8.79 8.79 0 0 0 3.057-4.494.629.629 0 0 0-.216-.67Zm-8.087 5.69c-4.089 0-7.415-3.326-7.415-7.414 0-2.759 1.578-5.27 3.977-6.53a7.589 7.589 0 0 0-.407 2.456c0 4.366 3.552 7.919 7.919 7.919a7.61 7.61 0 0 0 2.46-.409c-1.261 2.4-3.773 3.979-6.534 3.979Z"/></svg>